<mxfile host="Electron" agent="Mozilla/5.0 (Windows NT 10.0; Win64; x64) AppleWebKit/537.36 (KHTML, like Gecko) draw.io/26.0.9 Chrome/128.0.6613.186 Electron/32.2.5 Safari/537.36" version="26.0.9">
  <diagram name="PÃ¡gina-1" id="MzhOIyTQMM09GBE4kWv-">
    <mxGraphModel dx="1389" dy="977" grid="0" gridSize="10" guides="1" tooltips="1" connect="1" arrows="1" fold="1" page="0" pageScale="1" pageWidth="827" pageHeight="1169" math="0" shadow="0">
      <root>
        <mxCell id="0" />
        <mxCell id="1" parent="0" />
        <mxCell id="fP5sAmSkLrKOwZIjRT7V-2" value="" style="rounded=0;whiteSpace=wrap;html=1;" parent="1" vertex="1">
          <mxGeometry x="-385" y="-3" width="1441" height="822" as="geometry" />
        </mxCell>
        <mxCell id="fP5sAmSkLrKOwZIjRT7V-5" value="Ver TODOS PARTIDOS" style="rounded=0;whiteSpace=wrap;html=1;" parent="1" vertex="1">
          <mxGeometry x="118" y="10" width="120" height="60" as="geometry" />
        </mxCell>
        <mxCell id="fP5sAmSkLrKOwZIjRT7V-6" value="ComboBoxRondas" style="rounded=1;whiteSpace=wrap;html=1;" parent="1" vertex="1">
          <mxGeometry x="-371" y="10" width="306" height="60" as="geometry" />
        </mxCell>
        <mxCell id="fP5sAmSkLrKOwZIjRT7V-7" value="Ver RESULTADO TORNEO" style="rounded=1;whiteSpace=wrap;html=1;" parent="1" vertex="1">
          <mxGeometry x="-33" y="10" width="120" height="60" as="geometry" />
        </mxCell>
        <mxCell id="IjaL1ba1SX_HaE6icPac-2" value="" style="swimlane;childLayout=stackLayout;resizeParent=1;resizeParentMax=0;startSize=20;html=1;" vertex="1" parent="1">
          <mxGeometry x="-385" y="116" width="480" height="701" as="geometry" />
        </mxCell>
        <mxCell id="IjaL1ba1SX_HaE6icPac-3" value="Lane 1" style="swimlane;startSize=20;html=1;" vertex="1" parent="IjaL1ba1SX_HaE6icPac-2">
          <mxGeometry y="20" width="120" height="681" as="geometry" />
        </mxCell>
        <mxCell id="IjaL1ba1SX_HaE6icPac-4" value="Lane 2" style="swimlane;startSize=20;html=1;" vertex="1" parent="IjaL1ba1SX_HaE6icPac-2">
          <mxGeometry x="120" y="20" width="120" height="681" as="geometry" />
        </mxCell>
        <mxCell id="IjaL1ba1SX_HaE6icPac-5" value="Lane 3" style="swimlane;startSize=20;html=1;" vertex="1" parent="IjaL1ba1SX_HaE6icPac-2">
          <mxGeometry x="240" y="20" width="120" height="681" as="geometry" />
        </mxCell>
        <mxCell id="IjaL1ba1SX_HaE6icPac-6" value="Lane 3" style="swimlane;startSize=20;html=1;" vertex="1" parent="IjaL1ba1SX_HaE6icPac-2">
          <mxGeometry x="360" y="20" width="120" height="681" as="geometry" />
        </mxCell>
        <mxCell id="IjaL1ba1SX_HaE6icPac-7" value="" style="swimlane;childLayout=stackLayout;resizeParent=1;resizeParentMax=0;startSize=20;html=1;" vertex="1" parent="1">
          <mxGeometry x="575" y="114" width="480" height="704" as="geometry" />
        </mxCell>
        <mxCell id="IjaL1ba1SX_HaE6icPac-8" value="Lane 1" style="swimlane;startSize=20;html=1;" vertex="1" parent="IjaL1ba1SX_HaE6icPac-7">
          <mxGeometry y="20" width="120" height="684" as="geometry" />
        </mxCell>
        <mxCell id="IjaL1ba1SX_HaE6icPac-9" value="Lane 2" style="swimlane;startSize=20;html=1;" vertex="1" parent="IjaL1ba1SX_HaE6icPac-7">
          <mxGeometry x="120" y="20" width="120" height="684" as="geometry" />
        </mxCell>
        <mxCell id="IjaL1ba1SX_HaE6icPac-10" value="Lane 3" style="swimlane;startSize=20;html=1;" vertex="1" parent="IjaL1ba1SX_HaE6icPac-7">
          <mxGeometry x="240" y="20" width="120" height="684" as="geometry" />
        </mxCell>
        <mxCell id="IjaL1ba1SX_HaE6icPac-11" value="Lane 3" style="swimlane;startSize=20;html=1;" vertex="1" parent="IjaL1ba1SX_HaE6icPac-7">
          <mxGeometry x="360" y="20" width="120" height="684" as="geometry" />
        </mxCell>
        <mxCell id="IjaL1ba1SX_HaE6icPac-13" value="" style="swimlane;childLayout=stackLayout;resizeParent=1;resizeParentMax=0;startSize=20;html=1;" vertex="1" parent="1">
          <mxGeometry x="95" y="116" width="480" height="702" as="geometry" />
        </mxCell>
        <mxCell id="IjaL1ba1SX_HaE6icPac-14" value="Lane 1" style="swimlane;startSize=20;html=1;" vertex="1" parent="IjaL1ba1SX_HaE6icPac-13">
          <mxGeometry y="20" width="120" height="682" as="geometry" />
        </mxCell>
        <mxCell id="IjaL1ba1SX_HaE6icPac-15" value="Lane 2" style="swimlane;startSize=20;html=1;" vertex="1" parent="IjaL1ba1SX_HaE6icPac-13">
          <mxGeometry x="120" y="20" width="120" height="682" as="geometry" />
        </mxCell>
        <mxCell id="IjaL1ba1SX_HaE6icPac-16" value="Lane 3" style="swimlane;startSize=20;html=1;" vertex="1" parent="IjaL1ba1SX_HaE6icPac-13">
          <mxGeometry x="240" y="20" width="120" height="682" as="geometry" />
        </mxCell>
        <mxCell id="IjaL1ba1SX_HaE6icPac-17" value="Lane 3" style="swimlane;startSize=20;html=1;" vertex="1" parent="IjaL1ba1SX_HaE6icPac-13">
          <mxGeometry x="360" y="20" width="120" height="682" as="geometry" />
        </mxCell>
      </root>
    </mxGraphModel>
  </diagram>
</mxfile>
